<?xml version="1.0" standalone="no"?>
<!DOCTYPE svg PUBLIC "-//W3C//DTD SVG 20010904//EN"
 "http://www.w3.org/TR/2001/REC-SVG-20010904/DTD/svg10.dtd">
<svg version="1.0" xmlns="http://www.w3.org/2000/svg"
 width="578.000000pt" height="578.000000pt" viewBox="0 0 578.000000 578.000000"
 preserveAspectRatio="xMidYMid meet">
<metadata>
Created by potrace 1.14, written by Peter Selinger 2001-2017
</metadata>
<g transform="translate(0.000000,578.000000) scale(0.100000,-0.100000)"
fill="#000000" stroke="none">
<path d="M2813 5618 c-24 -13 -73 -41 -110 -62 -38 -21 -90 -51 -118 -66 -27
-15 -76 -42 -108 -61 -32 -19 -77 -45 -101 -59 -117 -67 -144 -82 -181 -105
-22 -13 -58 -33 -80 -45 -22 -11 -65 -36 -95 -55 -30 -19 -68 -42 -85 -50 -16
-8 -52 -29 -80 -46 -69 -44 -124 -75 -165 -95 -36 -17 -39 -19 -104 -56 -59
-35 -119 -70 -172 -101 -27 -15 -67 -39 -89 -52 -22 -13 -53 -31 -70 -40 -16
-8 -55 -31 -85 -50 -30 -19 -73 -44 -95 -55 -22 -11 -62 -34 -90 -52 -72 -45
-124 -75 -171 -98 -23 -11 -47 -27 -54 -35 -7 -8 -20 -15 -29 -15 -9 0 -32
-11 -51 -24 -19 -13 -45 -26 -57 -30 -12 -4 -34 -21 -48 -37 l-25 -31 0 -1307
c0 -875 3 -1318 10 -1338 10 -28 26 -39 129 -91 14 -7 33 -17 41 -22 8 -5 49
-28 90 -51 67 -38 126 -75 140 -89 7 -7 36 -25 90 -55 25 -14 63 -37 85 -50
22 -13 59 -34 82 -45 23 -11 45 -25 48 -30 3 -5 25 -19 48 -30 23 -11 60 -32
82 -45 22 -13 60 -36 85 -50 25 -14 63 -37 85 -50 22 -13 63 -35 90 -49 28
-15 68 -37 90 -51 22 -13 59 -34 82 -45 23 -11 45 -25 48 -30 3 -5 25 -19 48
-30 23 -11 60 -32 82 -45 22 -13 60 -36 85 -50 25 -14 63 -37 85 -50 22 -13
59 -34 81 -47 59 -33 133 -76 179 -103 62 -37 134 -78 195 -110 89 -47 103
-55 119 -68 9 -7 30 -19 48 -26 18 -7 38 -19 44 -27 15 -19 73 -18 89 1 7 8
31 24 54 35 22 12 59 32 81 45 22 13 60 36 85 50 25 14 62 36 82 48 79 47 211
123 251 145 78 41 159 87 196 109 20 12 55 32 78 43 23 11 45 25 48 30 3 5 25
19 48 30 23 11 60 32 82 45 22 13 60 36 85 50 25 15 63 37 85 50 22 13 60 36
85 50 51 29 111 64 173 100 23 14 65 37 92 51 28 14 68 36 90 49 22 13 60 36
85 50 73 41 162 96 170 106 3 3 12 9 20 13 8 3 40 22 70 41 30 19 69 42 85 50
17 9 55 31 85 50 30 19 69 42 87 51 17 9 36 28 42 41 8 17 11 405 11 1337 l0
1313 -21 27 c-11 15 -39 37 -61 49 -22 12 -61 34 -87 49 -25 15 -60 34 -78 42
-17 9 -34 20 -38 26 -3 5 -25 19 -48 30 -23 11 -60 32 -82 45 -58 35 -131 77
-174 100 -21 11 -45 25 -52 32 -8 6 -50 30 -94 53 -44 23 -98 53 -120 66 -22
13 -62 36 -88 51 -66 38 -92 53 -160 93 -98 58 -150 88 -182 104 -16 9 -55 32
-85 51 -30 19 -73 44 -95 55 -22 11 -68 37 -102 59 -35 22 -73 43 -85 47 -12
4 -34 14 -48 23 -32 22 -54 35 -114 68 -59 34 -120 70 -176 103 -23 14 -62 36
-86 50 -227 130 -241 135 -311 98z m1170 -2334 c35 -12 49 -22 53 -40 18 -70
-30 -99 -107 -65 -64 30 -124 27 -180 -8 -41 -26 -48 -36 -62 -88 -33 -115
-13 -235 47 -290 32 -29 42 -33 94 -33 77 0 91 12 95 79 4 61 29 91 77 91 36
0 50 -33 50 -119 0 -138 -22 -155 -210 -155 -112 0 -117 1 -172 32 -71 41
-119 111 -126 183 -2 27 -8 49 -13 49 -5 0 -9 18 -9 40 0 22 4 40 9 40 4 0 11
28 14 61 16 183 229 291 440 223z m-2373 1 c9 -11 11 -85 8 -293 l-3 -279 -30
-42 c-32 -47 -129 -115 -151 -107 -7 3 -20 19 -30 37 l-16 32 36 31 c58 50 69
95 67 281 -1 88 -4 179 -7 202 -6 40 -9 43 -48 53 -22 6 -47 13 -53 15 -16 5
-17 39 -3 66 10 17 22 19 114 19 79 0 106 -4 116 -15z m486 -22 c12 -18 24
-51 28 -74 4 -23 15 -60 25 -83 10 -22 24 -65 31 -93 10 -44 16 -53 33 -53 35
0 45 12 58 65 6 28 20 66 29 85 9 19 22 57 29 84 7 27 21 62 32 78 19 26 26
28 84 28 35 0 66 -4 69 -9 4 -5 11 -76 16 -157 6 -81 15 -177 21 -212 7 -36
12 -109 13 -161 l1 -96 -37 -3 c-70 -6 -73 -2 -86 175 -13 154 -25 223 -41
223 -5 0 -17 -26 -28 -57 -80 -229 -106 -277 -149 -281 -25 -2 -37 4 -61 31
-17 19 -34 52 -38 73 -3 21 -15 55 -26 76 -10 20 -19 43 -19 50 0 28 -21 88
-31 88 -24 0 -43 -86 -67 -310 l-7 -65 -41 -3 c-25 -2 -45 2 -51 10 -12 14 -1
210 16 289 6 26 15 106 21 178 6 72 13 138 16 146 5 13 20 15 72 13 62 -3 68
-5 88 -35z m834 -193 c3 -124 9 -232 13 -241 16 -33 71 -64 115 -64 38 0 48 5
83 42 l39 42 0 214 c0 152 3 216 12 225 7 7 29 12 49 12 72 0 69 7 69 -191 0
-290 -16 -352 -107 -418 -31 -22 -55 -30 -109 -35 -140 -14 -228 25 -270 120
-21 47 -23 68 -26 275 -2 123 1 230 5 237 6 9 27 12 65 10 l57 -3 5 -225z"/>
</g>
</svg>
